<?xml version="1.0" encoding="utf-8"?>
<!-- Generator: Adobe Illustrator 17.1.0, SVG Export Plug-In . SVG Version: 6.00 Build 0)  -->
<!DOCTYPE svg PUBLIC "-//W3C//DTD SVG 1.1//EN" "http://www.w3.org/Graphics/SVG/1.1/DTD/svg11.dtd">
<svg version="1.1" id="Layer_1" xmlns="http://www.w3.org/2000/svg" xmlns:xlink="http://www.w3.org/1999/xlink" x="0px" y="0px"
	 viewBox="0 0 45.3 39.4" enable-background="new 0 0 45.3 39.4" xml:space="preserve">
<g>
	<path fill="#00B2AC" d="M40.5,3.3l-0.2-0.2c-2.5-2-5.7-3-9-2.6c-3.2,0.3-6.2,1.9-8.2,4.5L23,5.2l18,14.4l-8.6,10.7l-3.9,4.8
		l-2.5,3.1l1.2,1l15.1-18.7C46.6,15.2,45.8,7.5,40.5,3.3z"/>
	<path fill="#F79C84" d="M27,34.8l-11.5-9.2l0.9-1.1l11.5,9.2l3-3.7l-11.5-9.2l0.9-1.1l11.5,9.2l3-3.7l-11.5-9.2l0.9-1.1l11.5,9.2
		l3.4-4.3l-17.4-14l-1.3-1C15.1,0.6,7.4,1.4,3.2,6.6L3,6.8c-2,2.5-3,5.7-2.6,9S2.4,22,4.9,24l18.7,15l1-1.2L27,34.8z"/>
</g>
</svg>